<?xml version="1.0" encoding="iso-8859-1"?>
<!-- Uploaded to: SVG Repo, www.svgrepo.com, Generator: SVG Repo Mixer Tools -->
<svg height="800px" width="800px" version="1.1" id="Layer_1" xmlns="http://www.w3.org/2000/svg" xmlns:xlink="http://www.w3.org/1999/xlink" 
	 viewBox="0 0 417.537 417.537" xml:space="preserve">
<g transform="translate(0 -1020.36)" shape-rendering="auto" image-rendering="auto" color-rendering="auto" color-interpolation="sRGB">
	<g>
		<path style="fill:#FFFFFF;" d="M279.984,1203.906c26.605,0,48.071,21.35,48.071,47.951c0,26.605-21.467,48.072-48.071,48.072
			c-26.604,0-47.952-21.467-47.952-48.072C232.031,1225.253,253.379,1203.906,279.984,1203.906L279.984,1203.906z"/>
		<path style="fill:#FFFFFF;" d="M135.181,1203.906c26.604,0,48.071,21.35,48.071,47.951c0,26.605-21.467,48.072-48.071,48.072
			s-47.952-21.467-47.953-48.072C87.228,1225.253,108.576,1203.906,135.181,1203.906z"/>
	</g>
	<g>
		<path style="fill:#EBFEFF;" d="M279.998,1215.917c19.949,0,36.045,16.008,36.045,35.957c0,19.947-16.096,36.043-36.045,36.043
			c-19.948,0-35.955-16.096-35.955-36.043C244.043,1231.925,260.05,1215.917,279.998,1215.917z"/>
		<path style="fill:#EBFEFF;" d="M135.195,1215.917c19.948,0,36.045,16.008,36.045,35.957c0,19.947-16.097,36.043-36.045,36.043
			s-35.955-16.096-35.956-36.043C99.24,1231.925,115.247,1215.917,135.195,1215.917L135.195,1215.917z"/>
	</g>
	<path style="fill:#29A3EC;" d="M63.96,1158.433c26.604,0,48.071,21.348,48.071,47.951c0,26.605-21.467,47.953-48.071,47.953
		s-47.953-21.35-47.953-47.953C16.008,1179.779,37.356,1158.433,63.96,1158.433z"/>
	<path style="fill:#3CDEF6;" d="M63.969,1166.435c22.166,0,40.05,17.785,40.05,39.951c0,22.164-17.885,39.951-40.05,39.951
		c-22.164,0-39.95-17.785-39.95-39.951C24.019,1184.222,41.805,1166.435,63.969,1166.435z"/>
	<g>
		<path style="fill:#FFFFFF;" d="M111.641,1210.283c-1.324,16.242-10.574,30.039-24,37.654
			C88.959,1231.658,98.194,1217.875,111.641,1210.283z"/>
		<path style="fill:#FFFFFF;" d="M158.859,1210.31c13.44,7.605,22.706,21.381,24.031,37.625
			C169.448,1240.332,160.194,1226.558,158.859,1210.31z"/>
	</g>
	<path style="fill:#FCF2EC;" d="M306.016,1211.593c11.855,7.617,19.9,20.307,21.5,35.063
		C315.671,1239.035,307.625,1226.332,306.016,1211.593z"/>
	<path style="fill:#EE746C;" d="M206.519,1158.433c26.604,0,47.953,21.348,47.953,47.951c0,26.605-21.349,47.953-47.953,47.953
		s-48.071-21.35-48.071-47.953C158.449,1179.779,179.915,1158.433,206.519,1158.433L206.519,1158.433z"/>
	<path style="fill:#FB9761;" d="M206.41,1166.435c22.165,0,40.05,17.785,40.05,39.951c0,22.164-17.885,39.951-40.05,39.951
		c-22.165,0-39.95-17.785-39.95-39.951C166.46,1184.222,184.245,1166.435,206.41,1166.435z"/>
	<g>
		<path style="fill:#5A3392;" d="M58.8,1142.63c-14.936,1.199-29.425,7.623-40.563,19c-22.275,22.756-24.4,58.586-4.969,83.813
			s54.626,32.322,82.313,16.594c27.687-15.73,39.595-49.58,27.875-79.188c-1.483-4.162-6.059-6.334-10.222-4.852
			c-4.162,1.482-6.335,6.059-4.852,10.221c0.061,0.17,0.127,0.338,0.199,0.504c8.828,22.305-0.05,47.559-20.906,59.406
			c-20.856,11.848-47.113,6.566-61.75-12.438s-13.03-45.734,3.75-62.875s43.439-19.291,62.75-5.063
			c3.524,2.666,8.542,1.969,11.207-1.557c2.665-3.523,1.969-8.541-1.556-11.207c-0.05-0.037-0.101-0.074-0.152-0.111
			c-12.818-9.445-28.189-13.455-43.125-12.25V1142.63z"/>
		<path style="fill:#5A3392;" d="M201.3,1142.63c-14.936,1.199-29.456,7.623-40.594,19c-22.275,22.756-24.4,58.586-4.969,83.813
			s54.626,32.322,82.313,16.594c27.687-15.73,39.626-49.611,27.906-79.219c-1.631-4.107-6.283-6.115-10.391-4.484
			s-6.115,6.283-4.484,10.391c8.828,22.305-0.05,47.559-20.906,59.406c-20.856,11.848-47.113,6.535-61.75-12.469
			c-14.637-19.004-13.061-45.703,3.719-62.844s43.47-19.291,62.781-5.063c3.564,2.623,8.58,1.861,11.203-1.703
			s1.861-8.58-1.703-11.203C231.607,1145.404,216.236,1141.425,201.3,1142.63z"/>
		<path style="fill:#5A3392;" d="M348.425,1142.63c-14.936,1.199-29.456,7.623-40.594,19c-22.275,22.756-24.4,58.586-4.969,83.813
			c19.431,25.227,54.626,32.322,82.313,16.594c27.687-15.73,39.595-49.611,27.875-79.219c-1.631-4.107-6.283-6.115-10.391-4.484
			s-6.115,6.283-4.484,10.391c8.828,22.305-0.05,47.559-20.906,59.406c-20.856,11.848-47.113,6.535-61.75-12.469
			s-13.03-45.703,3.75-62.844s43.439-19.291,62.75-5.063c3.564,2.623,8.58,1.861,11.203-1.703s1.861-8.58-1.703-11.203
			C378.701,1145.404,363.361,1141.425,348.425,1142.63z"/>
	</g>
	<path style="fill:#29A3EC;" d="M353.567,1158.433c26.604,0,47.953,21.348,47.953,47.951c0,26.605-21.349,47.953-47.953,47.953
		c-26.604,0-48.071-21.35-48.071-47.953C305.496,1179.779,326.962,1158.433,353.567,1158.433z"/>
	<path style="fill:#3CDEF6;" d="M353.458,1166.435c22.165,0,40.05,17.785,40.05,39.951c0,22.164-17.885,39.951-40.05,39.951
		c-22.165,0-39.95-17.785-39.95-39.951C313.508,1184.222,331.293,1166.435,353.458,1166.435z"/>
	<path style="fill:#5A3392;" d="M274.8,1188.099c-14.936,1.199-29.456,7.623-40.594,19c-22.275,22.756-24.369,58.586-4.938,83.813
		s54.626,32.322,82.313,16.594c27.687-15.73,39.595-49.58,27.875-79.189c-1.489-4.16-6.069-6.326-10.229-4.838
		c-4.16,1.49-6.326,6.07-4.837,10.23c0.058,0.162,0.122,0.324,0.191,0.482c8.828,22.305-0.05,47.559-20.906,59.406
		c-20.856,11.848-47.113,6.566-61.75-12.438c-14.637-19.004-13.061-45.734,3.719-62.875s43.47-19.291,62.781-5.063
		c3.524,2.666,8.542,1.969,11.207-1.557c2.665-3.523,1.969-8.541-1.556-11.207c-0.05-0.037-0.101-0.074-0.152-0.111
		c-12.818-9.445-28.189-13.455-43.125-12.25V1188.099z"/>
	<path style="fill:#FFFFFF;" d="M253.953,1211.625c-1.609,14.709-9.591,27.381-21.375,35
		C234.175,1231.904,242.168,1219.24,253.953,1211.625z"/>
	<path style="fill:#5A3392;" d="M130.081,1188.099c-14.936,1.199-29.456,7.623-40.594,19c-22.275,22.756-24.4,58.586-4.969,83.813
		s54.657,32.322,82.344,16.594c27.687-15.73,39.595-49.58,27.875-79.189c-1.489-4.16-6.069-6.326-10.229-4.838
		c-4.16,1.49-6.326,6.07-4.837,10.23c0.058,0.162,0.122,0.324,0.191,0.482c8.828,22.305-0.05,47.559-20.906,59.406
		c-20.856,11.848-47.113,6.566-61.75-12.438s-13.061-45.734,3.719-62.875s43.47-19.291,62.781-5.063
		c3.524,2.666,8.542,1.969,11.207-1.557c2.665-3.523,1.969-8.541-1.556-11.207c-0.05-0.037-0.101-0.074-0.152-0.111
		c-12.818-9.445-28.189-13.455-43.125-12.25V1188.099z"/>
</g>
</svg>